<svg width="431" height="418" viewBox="0 0 431 418" fill="none" xmlns="http://www.w3.org/2000/svg">
<path d="M81.0688 192.462V194.823C81.0705 195.264 80.9325 195.693 80.6746 196.05C80.4167 196.408 80.0523 196.674 79.6336 196.811V197.678C79.6336 197.951 79.5798 198.221 79.4753 198.473C79.3708 198.726 79.2177 198.955 79.0246 199.148C78.8315 199.341 78.6023 199.494 78.3501 199.599C78.0978 199.703 77.8274 199.757 77.5544 199.757H59.5926C59.3195 199.757 59.0491 199.703 58.7969 199.599C58.5446 199.494 58.3154 199.341 58.1223 199.148C57.9292 198.955 57.7761 198.726 57.6716 198.473C57.5671 198.221 57.5133 197.951 57.5133 197.678V196.811C57.0932 196.676 56.7272 196.41 56.4684 196.053C56.2096 195.695 56.0715 195.264 56.0741 194.823V192.462C56.0741 192.189 56.1279 191.918 56.2324 191.666C56.3369 191.414 56.4901 191.184 56.6831 190.991C56.8762 190.798 57.1054 190.645 57.3577 190.541C57.6099 190.436 57.8803 190.382 58.1534 190.382H78.9896C79.2627 190.382 79.5334 190.435 79.7859 190.54C80.0384 190.644 80.2678 190.797 80.461 190.99C80.6541 191.183 80.8073 191.413 80.9116 191.665C81.0159 191.918 81.0693 192.188 81.0688 192.462Z" fill="#F7F3EF" stroke="#070707" stroke-width="1" stroke-linecap="round" stroke-linejoin="round"/>
<path d="M57.4219 196.274H79.725C83.1402 196.274 86.4156 197.631 88.8305 200.046C91.2454 202.46 92.6021 205.736 92.6021 209.151V256.461C92.5968 258.089 91.9461 259.65 90.7925 260.8C89.6389 261.949 88.0766 262.595 86.4478 262.595H50.6991C49.0669 262.595 47.5015 261.947 46.3474 260.793C45.1933 259.638 44.5449 258.073 44.5449 256.441V209.131C44.5501 205.719 45.9091 202.449 48.3235 200.038C50.7378 197.628 54.0101 196.274 57.4219 196.274Z" fill="#F7F3EF" stroke="#070707" stroke-width="1" stroke-linecap="round" stroke-linejoin="round"/>
<path d="M89.1195 234.802V253.173C89.1195 254.763 88.4878 256.288 87.3635 257.412C86.2392 258.536 84.7143 259.168 83.1243 259.168H54.0108C52.4211 259.167 50.8968 258.535 49.7727 257.411C48.6487 256.287 48.0167 254.763 48.0156 253.173V234.802C48.0156 232.985 57.2192 229.633 68.5735 229.633C79.9279 229.633 89.1195 232.985 89.1195 234.802Z" fill="#bb86fc" stroke="black" stroke-width="1" stroke-linecap="round" stroke-linejoin="round"/>
<path d="M140.695 192.462V194.823C140.697 195.264 140.559 195.695 140.3 196.052C140.041 196.409 139.676 196.675 139.256 196.811V197.678C139.256 197.951 139.202 198.221 139.098 198.473C138.993 198.726 138.84 198.955 138.647 199.148C138.454 199.341 138.225 199.494 137.972 199.599C137.72 199.703 137.45 199.757 137.177 199.757H119.219C118.946 199.757 118.675 199.704 118.422 199.6C118.17 199.495 117.941 199.342 117.747 199.149C117.554 198.956 117.401 198.726 117.297 198.474C117.192 198.221 117.139 197.951 117.14 197.678V196.811C116.719 196.676 116.352 196.41 116.093 196.053C115.834 195.695 115.695 195.265 115.696 194.823V192.462C115.696 192.189 115.75 191.918 115.855 191.666C115.959 191.414 116.112 191.184 116.305 190.991C116.498 190.798 116.728 190.645 116.98 190.541C117.232 190.436 117.503 190.382 117.776 190.382H138.616C138.889 190.382 139.159 190.436 139.411 190.541C139.664 190.645 139.893 190.798 140.086 190.991C140.279 191.184 140.432 191.414 140.537 191.666C140.641 191.918 140.695 192.189 140.695 192.462Z" fill="#F7F3EF" stroke="#070707" stroke-width="1" stroke-linecap="round" stroke-linejoin="round"/>
<path d="M117.044 196.274H139.347C142.762 196.274 146.038 197.631 148.453 200.046C150.868 202.46 152.224 205.736 152.224 209.151V256.461C152.219 258.089 151.568 259.65 150.415 260.8C149.261 261.949 147.699 262.595 146.07 262.595H110.321C108.689 262.595 107.124 261.947 105.97 260.793C104.815 259.638 104.167 258.073 104.167 256.441V209.131C104.172 205.719 105.531 202.449 107.946 200.038C110.36 197.628 113.632 196.274 117.044 196.274Z" fill="#F7F3EF" stroke="#070707" stroke-width="1" stroke-linecap="round" stroke-linejoin="round"/>
<path d="M148.754 232.639V251.106C148.754 255.554 146.066 259.168 142.758 259.168H113.637C110.325 259.168 107.642 255.554 107.642 251.106V229.518C107.642 224.998 116.313 218.47 132.318 222.247C145.839 225.439 148.754 232.639 148.754 232.639Z" fill="#6200ee" stroke="#070707" stroke-width="1" stroke-linecap="round" stroke-linejoin="round"/>
<path d="M181.397 235.394H187.913C188.974 235.394 190.025 235.603 191.005 236.009C191.985 236.415 192.876 237.01 193.626 237.76C194.376 238.51 194.971 239.401 195.377 240.381C195.783 241.361 195.992 242.412 195.992 243.472V255.002C195.992 256.689 195.322 258.307 194.129 259.5C192.936 260.693 191.318 261.363 189.631 261.363H179.672C177.985 261.363 176.367 260.693 175.174 259.5C173.981 258.307 173.311 256.689 173.311 255.002V243.472C173.311 242.411 173.52 241.36 173.927 240.379C174.333 239.399 174.929 238.508 175.68 237.757C176.431 237.007 177.322 236.412 178.303 236.007C179.284 235.601 180.336 235.393 181.397 235.394Z" fill="#F7F3EF" stroke="#070707" stroke-width="1" stroke-linecap="round" stroke-linejoin="round"/>
<path d="M181.751 235.394H188.776C190.851 235.394 192.841 236.218 194.308 237.686C195.776 239.153 196.6 241.143 196.6 243.218V254.799C196.6 255.658 196.431 256.509 196.102 257.303C195.773 258.097 195.291 258.819 194.683 259.426C194.076 260.034 193.354 260.516 192.56 260.845C191.767 261.174 190.916 261.343 190.056 261.343H180.475C179.616 261.343 178.765 261.174 177.971 260.845C177.177 260.516 176.455 260.034 175.848 259.426C175.24 258.819 174.758 258.097 174.429 257.303C174.1 256.509 173.931 255.658 173.931 254.799V243.218C173.931 241.144 174.755 239.154 176.221 237.687C177.688 236.22 179.677 235.395 181.751 235.394Z" fill="#1C0E0C"/>
<path d="M174.885 235.394H181.91C183.985 235.394 185.975 236.218 187.443 237.686C188.91 239.153 189.734 241.143 189.734 243.218V254.799C189.734 255.658 189.565 256.509 189.236 257.303C188.907 258.097 188.425 258.819 187.818 259.426C187.21 260.034 186.488 260.516 185.695 260.845C184.901 261.174 184.05 261.343 183.19 261.343H173.605C172.746 261.343 171.895 261.174 171.101 260.845C170.307 260.516 169.586 260.034 168.978 259.426C168.37 258.819 167.888 258.097 167.559 257.303C167.231 256.509 167.061 255.658 167.061 254.799V243.218C167.061 241.143 167.886 239.153 169.353 237.686C170.82 236.218 172.81 235.394 174.885 235.394Z" fill="#F7F3EF" stroke="#070707" stroke-width="1" stroke-linecap="round" stroke-linejoin="round"/>
<path d="M185.54 243.667H171.009V252.74H185.54V243.667Z" fill="#F7F3EF" stroke="#070707" stroke-width="1" stroke-linecap="round" stroke-linejoin="round"/>
<path d="M185.906 225.117H181.823C178.678 225.117 176.523 228.536 177.676 231.689L179.028 235.374H188.701L190.052 231.689C191.205 228.536 189.05 225.117 185.906 225.117Z" fill="#1C0E0C"/>
<path d="M181.485 225.117H177.398C174.253 225.117 172.098 228.536 173.255 231.689L174.603 235.374H184.276L185.627 231.689C186.784 228.536 184.626 225.117 181.485 225.117Z" fill="#F7F3EF" stroke="#070707" stroke-width="1" stroke-linecap="round" stroke-linejoin="round"/>
<path d="M219.209 235.394H225.721C227.864 235.394 229.919 236.245 231.434 237.76C232.949 239.275 233.8 241.33 233.8 243.472V255.002C233.8 256.689 233.13 258.307 231.937 259.5C230.744 260.693 229.126 261.363 227.439 261.363H217.48C215.793 261.363 214.175 260.693 212.982 259.5C211.789 258.307 211.119 256.689 211.119 255.002V243.472C211.119 241.33 211.97 239.275 213.485 237.76C215 236.245 217.055 235.394 219.197 235.394H219.209Z" fill="#F7F3EF" stroke="#070707" stroke-width="1" stroke-linecap="round" stroke-linejoin="round"/>
<path d="M219.563 235.394H226.588C228.663 235.394 230.653 236.218 232.121 237.686C233.588 239.153 234.412 241.143 234.412 243.218V254.799C234.411 256.534 233.721 258.197 232.494 259.424C231.267 260.65 229.603 261.339 227.868 261.339H218.283C216.548 261.339 214.883 260.649 213.656 259.422C212.429 258.195 211.739 256.531 211.739 254.795V243.218C211.739 241.143 212.564 239.153 214.031 237.686C215.498 236.218 217.488 235.394 219.563 235.394Z" fill="#1C0E0C"/>
<path d="M212.697 235.394H219.722C221.797 235.394 223.787 236.218 225.255 237.686C226.722 239.153 227.546 241.143 227.546 243.218V254.799C227.546 255.658 227.377 256.509 227.048 257.303C226.719 258.097 226.237 258.819 225.63 259.426C225.022 260.034 224.301 260.516 223.507 260.845C222.713 261.174 221.862 261.343 221.002 261.343H211.417C210.558 261.343 209.707 261.174 208.913 260.845C208.119 260.516 207.398 260.034 206.79 259.426C206.182 258.819 205.7 258.097 205.371 257.303C205.043 256.509 204.873 255.658 204.873 254.799V243.218C204.873 241.143 205.698 239.153 207.165 237.686C208.632 236.218 210.622 235.394 212.697 235.394Z" fill="#F7F3EF" stroke="#070707" stroke-width="1" stroke-linecap="round" stroke-linejoin="round"/>
<path d="M223.348 243.667H208.817V252.74H223.348V243.667Z" fill="#F7F3EF" stroke="#070707" stroke-width="1" stroke-linecap="round" stroke-linejoin="round"/>
<path d="M224.032 225.117H220.263C217.118 225.117 214.963 228.536 216.12 231.689L217.468 235.374H226.827L228.178 231.689C229.331 228.536 227.176 225.117 224.032 225.117Z" fill="#1C0E0C"/>
<path d="M218.979 225.117H215.21C212.065 225.117 209.91 228.536 211.063 231.689L212.415 235.374H221.774L223.121 231.689C224.29 228.536 222.123 225.117 218.979 225.117Z" fill="#F7F3EF" stroke="#070707" stroke-width="1" stroke-linecap="round" stroke-linejoin="round"/>
<path d="M257.021 235.394H263.533C265.674 235.397 267.726 236.25 269.238 237.764C270.75 239.279 271.6 241.332 271.6 243.472V255.002C271.6 256.689 270.93 258.307 269.737 259.5C268.544 260.693 266.926 261.363 265.239 261.363H255.3C253.613 261.363 251.995 260.693 250.802 259.5C249.609 258.307 248.939 256.689 248.939 255.002V243.472C248.939 242.412 249.148 241.361 249.554 240.381C249.96 239.401 250.555 238.51 251.305 237.76C252.055 237.01 252.946 236.415 253.926 236.009C254.906 235.603 255.957 235.394 257.017 235.394H257.021Z" fill="#F7F3EF" stroke="#070707" stroke-width="1" stroke-linecap="round" stroke-linejoin="round"/>
<path d="M257.375 235.394H264.4C266.475 235.394 268.465 236.218 269.933 237.686C271.4 239.153 272.224 241.143 272.224 243.218V254.799C272.224 255.658 272.055 256.509 271.726 257.303C271.397 258.097 270.915 258.819 270.307 259.426C269.7 260.034 268.978 260.516 268.185 260.845C267.391 261.174 266.54 261.343 265.68 261.343H256.095C255.236 261.343 254.385 261.174 253.591 260.845C252.797 260.516 252.076 260.034 251.468 259.426C250.86 258.819 250.378 258.097 250.049 257.303C249.72 256.509 249.551 255.658 249.551 254.799V243.218C249.551 241.143 250.376 239.153 251.843 237.686C253.31 236.218 255.3 235.394 257.375 235.394Z" fill="#1C0E0C"/>
<path d="M250.509 235.394H257.534C259.609 235.394 261.599 236.218 263.067 237.686C264.534 239.153 265.358 241.143 265.358 243.218V254.799C265.358 255.658 265.189 256.509 264.86 257.303C264.531 258.097 264.049 258.819 263.442 259.426C262.834 260.034 262.113 260.516 261.319 260.845C260.525 261.174 259.674 261.343 258.814 261.343H249.225C248.366 261.343 247.515 261.174 246.721 260.845C245.927 260.516 245.206 260.034 244.598 259.426C243.99 258.819 243.508 258.097 243.179 257.303C242.851 256.509 242.681 255.658 242.681 254.799V243.218C242.681 242.19 242.884 241.173 243.277 240.223C243.671 239.274 244.247 238.411 244.974 237.684C245.701 236.958 246.564 236.381 247.514 235.988C248.464 235.596 249.482 235.394 250.509 235.394Z" fill="#F7F3EF" stroke="#070707" stroke-width="1" stroke-linecap="round" stroke-linejoin="round"/>
<path d="M261.16 243.667H246.629V252.74H261.16V243.667Z" fill="#F7F3EF" stroke="#070707" stroke-width="1" stroke-linecap="round" stroke-linejoin="round"/>
<path d="M261.53 225.117H256.811C253.666 225.117 251.511 228.536 252.668 231.689L254.016 235.374H264.321L265.672 231.689C266.829 228.536 264.674 225.117 261.53 225.117Z" fill="#1C0E0C"/>
<path d="M256.493 225.117H253.038C249.893 225.117 247.738 228.536 248.895 231.689L250.243 235.374H259.276L260.623 231.689C261.772 228.536 259.617 225.117 256.493 225.117Z" fill="#F7F3EF" stroke="#070707" stroke-width="1" stroke-linecap="round" stroke-linejoin="round"/>
<path d="M338.665 196.103H337.146C337.274 196.36 337.34 196.643 337.341 196.93V198.318C337.341 198.652 337.208 198.972 336.972 199.209C336.735 199.445 336.415 199.578 336.08 199.578H328.407C328.242 199.578 328.077 199.546 327.924 199.483C327.771 199.42 327.631 199.327 327.514 199.21C327.396 199.093 327.303 198.954 327.24 198.801C327.176 198.648 327.143 198.483 327.143 198.318V196.93C327.144 196.643 327.21 196.36 327.338 196.103H325.748V193.451C325.748 193.207 325.796 192.964 325.89 192.738C325.984 192.512 326.121 192.307 326.294 192.134C326.467 191.962 326.673 191.825 326.899 191.731C327.125 191.638 327.368 191.59 327.612 191.591H336.8C337.044 191.59 337.287 191.638 337.513 191.731C337.739 191.825 337.944 191.962 338.117 192.135C338.29 192.307 338.427 192.513 338.52 192.739C338.613 192.965 338.661 193.207 338.661 193.451L338.665 196.103Z" fill="#F7F3EF" stroke="#070707" stroke-width="1" stroke-linecap="round" stroke-linejoin="round"/>
<path d="M344.719 231.824L343.129 255.181C343.076 256.162 342.652 257.086 341.944 257.766C341.235 258.446 340.295 258.833 339.313 258.846H325.104C324.121 258.833 323.18 258.448 322.472 257.767C321.763 257.086 321.34 256.162 321.287 255.181L319.697 231.824H344.719Z" fill="#F7F3EF" stroke="#070707" stroke-width="1" stroke-linecap="round" stroke-linejoin="round"/>
<path d="M347.61 225.121L345.352 257.371C345.271 258.531 344.754 259.617 343.906 260.412C343.057 261.206 341.938 261.65 340.776 261.653H323.68C322.515 261.654 321.393 261.212 320.54 260.417C319.688 259.622 319.169 258.534 319.089 257.371L316.831 225.121C316.735 223.838 316.971 222.553 317.516 221.387C318.06 220.222 318.895 219.216 319.939 218.466C321.081 217.673 322.015 216.615 322.661 215.384C323.307 214.153 323.646 212.784 323.649 211.393L323.549 199.272C323.531 198.861 323.596 198.451 323.74 198.066C323.885 197.682 324.105 197.33 324.389 197.033C324.673 196.736 325.014 196.499 325.392 196.337C325.769 196.176 326.176 196.092 326.587 196.091H337.83C338.241 196.091 338.648 196.175 339.026 196.336C339.404 196.498 339.745 196.735 340.03 197.032C340.314 197.329 340.535 197.681 340.68 198.066C340.824 198.451 340.889 198.861 340.871 199.272L340.776 211.401C340.779 212.79 341.117 214.157 341.761 215.387C342.406 216.617 343.337 217.673 344.477 218.466C345.526 219.213 346.365 220.218 346.914 221.384C347.463 222.549 347.702 223.836 347.61 225.121Z" fill="#F7F3EF" stroke="#070707" stroke-width="1" stroke-linecap="round" stroke-linejoin="round"/>
<path d="M340.108 244.705C339.865 246.049 336.41 247.738 332.184 247.738C327.958 247.738 324.503 246.049 324.261 244.705L324.293 227.725C324.726 226.441 328.093 224.819 332.184 224.819C336.275 224.819 339.643 226.441 340.076 227.725L340.108 244.705Z" fill="#F7F3EF" stroke="#070707" stroke-width="1" stroke-linecap="round" stroke-linejoin="round"/>
<path d="M381.569 200.21V201.041C381.569 201.498 381.388 201.937 381.064 202.261C380.74 202.584 380.302 202.766 379.844 202.766V205.39C379.844 205.626 379.798 205.859 379.709 206.077C379.619 206.295 379.487 206.494 379.32 206.661C379.154 206.827 378.956 206.96 378.738 207.05C378.52 207.141 378.287 207.187 378.051 207.187H374.596C374.36 207.187 374.127 207.141 373.909 207.05C373.691 206.96 373.493 206.827 373.327 206.661C373.16 206.494 373.028 206.295 372.938 206.077C372.849 205.859 372.803 205.626 372.803 205.39V202.766C372.346 202.766 371.907 202.584 371.583 202.261C371.26 201.937 371.078 201.498 371.078 201.041V200.21C371.077 199.983 371.121 199.758 371.208 199.548C371.294 199.339 371.421 199.148 371.582 198.987C371.742 198.827 371.932 198.699 372.142 198.612C372.352 198.525 372.576 198.48 372.803 198.48H379.844C380.071 198.48 380.296 198.525 380.505 198.612C380.715 198.699 380.905 198.827 381.065 198.987C381.226 199.148 381.353 199.339 381.439 199.548C381.526 199.758 381.57 199.983 381.569 200.21Z" fill="#F7F3EF" stroke="#070707" stroke-width="1" stroke-linecap="round" stroke-linejoin="round"/>
<path d="M390.844 244.872C390.844 248.593 388.59 254.266 386.527 257.594C386.294 257.972 385.968 258.284 385.581 258.501C385.193 258.717 384.756 258.831 384.313 258.83H369.678C369.228 258.83 368.785 258.713 368.394 258.491C368.002 258.269 367.675 257.949 367.444 257.562C365.385 254.127 363.13 248.057 363.13 244.331C363.108 242.081 363.461 239.842 364.176 237.708H389.676C390.475 240.011 390.87 242.435 390.844 244.872Z" fill="#F7F3EF" stroke="#070707" stroke-width="1" stroke-linecap="round" stroke-linejoin="round"/>
<path d="M393.452 244.737C393.452 249.161 390.769 255.904 388.324 259.868C388.047 260.317 387.66 260.688 387.199 260.946C386.739 261.203 386.22 261.339 385.692 261.339H368.303C367.768 261.339 367.242 261.201 366.777 260.938C366.311 260.674 365.922 260.295 365.647 259.836C363.202 255.753 360.526 248.533 360.526 244.112C360.526 235.235 364.558 228.639 371.455 225.968V208.499L367.71 202.766H382.52V225.968C389.421 228.639 393.452 235.863 393.452 244.737Z" fill="#1C0E0C"/>
<path d="M382.52 207.187H387.465C388.245 207.187 389.013 207.376 389.704 207.736C390.395 208.096 390.989 208.617 391.436 209.256C391.883 209.894 392.17 210.631 392.272 211.404C392.374 212.177 392.288 212.963 392.021 213.695L386.694 228.349" fill="#F7F3EF"/>
<path d="M382.52 207.187H387.465C388.245 207.187 389.013 207.376 389.704 207.736C390.395 208.096 390.989 208.617 391.436 209.256C391.883 209.894 392.17 210.631 392.272 211.404C392.374 212.177 392.288 212.963 392.021 213.695L386.694 228.349" stroke="#070707" stroke-width="1" stroke-linecap="round" stroke-linejoin="round"/>
<path d="M306.482 217.476V259.618C306.482 260.156 306.268 260.673 305.887 261.054C305.506 261.435 304.989 261.649 304.45 261.649H288.393C288.126 261.65 287.861 261.597 287.614 261.496C287.367 261.394 287.143 261.244 286.954 261.055C286.765 260.867 286.615 260.643 286.512 260.396C286.41 260.149 286.357 259.885 286.357 259.618V217.476C286.357 216.06 286.849 214.688 287.75 213.595C288.651 212.502 289.905 211.758 291.295 211.489V201.438H301.548V211.489C302.938 211.758 304.191 212.504 305.091 213.596C305.991 214.689 306.483 216.06 306.482 217.476Z" fill="#F7F3EF" stroke="#070707" stroke-width="1" stroke-linecap="round" stroke-linejoin="round"/>
<path d="M303.528 223.535V256.886C303.528 258.107 302.661 259.097 301.588 259.097H291.251C290.182 259.097 289.311 258.107 289.311 256.886V223.535H303.528Z" fill="#6200ee"/>
<path d="M302.908 199.864H289.932C289.416 199.864 288.997 200.282 288.997 200.798V202.194C288.997 202.71 289.416 203.128 289.932 203.128H302.908C303.424 203.128 303.842 202.71 303.842 202.194V200.798C303.842 200.282 303.424 199.864 302.908 199.864Z" fill="#F7F3EF" stroke="#070707" stroke-width="1" stroke-linecap="round" stroke-linejoin="round"/>
<path d="M38.9194 282.342H17.618V292.965L38.9194 289.685V282.342Z" fill="#F7F3EF" stroke="#070707" stroke-width="1" stroke-linecap="round" stroke-linejoin="round"/>
<path d="M38.6013 315.379H391.572" stroke="#070707" stroke-width="1" stroke-linecap="round" stroke-linejoin="round"/>
<path d="M429.805 262.897H1V282.342H429.805V262.897Z" fill="#F7F3EF" stroke="#070707" stroke-width="1" stroke-linecap="round" stroke-linejoin="round"/>
<path d="M38.9194 282.342H17.618V315.379H38.9194V282.342Z" fill="#F7F3EF" stroke="#070707" stroke-width="1" stroke-linecap="round" stroke-linejoin="round"/>
<path d="M413.517 282.342H392.212V292.965L413.517 289.685V282.342Z" fill="#F7F3EF" stroke="#070707" stroke-width="1" stroke-linecap="round" stroke-linejoin="round"/>
<path d="M413.513 282.342H392.212V315.379H413.513V282.342Z" fill="#F7F3EF" stroke="#070707" stroke-width="1" stroke-linecap="round" stroke-linejoin="round"/>
<path d="M77.2244 342.823V380.822C77.2244 394.705 80.8422 404.528 87.7995 417C87.7995 417 99.9211 381.283 100.8 347.224L77.2244 342.823Z" fill="#F7F3EF" stroke="#070707" stroke-width="1" stroke-linecap="round" stroke-linejoin="round"/>
<path d="M87.7995 344.759L77.2244 342.823V307.412C77.2244 304.856 79.5899 302.781 82.5119 302.781C85.43 302.781 87.7995 304.856 87.7995 307.412V344.759Z" fill="#F7F3EF" stroke="#070707" stroke-width="1" stroke-linecap="round" stroke-linejoin="round"/>
<path d="M135.559 342.823H121.664V417C121.664 417 135.559 392.303 135.559 342.823Z" fill="#F7F3EF" stroke="#070707" stroke-width="1" stroke-linecap="round" stroke-linejoin="round"/>
<path d="M132.239 342.823H121.664V307.412C121.664 304.856 124.029 302.781 126.951 302.781C129.869 302.781 132.239 304.856 132.239 307.412V342.823Z" fill="#F7F3EF" stroke="#070707" stroke-width="1" stroke-linecap="round" stroke-linejoin="round"/>
<path d="M173.545 347.073C173.361 347.239 173.213 347.442 173.112 347.668C173.011 347.895 172.959 348.141 172.959 348.389C172.959 348.637 173.011 348.883 173.112 349.109C173.213 349.336 173.361 349.539 173.545 349.705C173.622 349.771 173.683 349.853 173.726 349.945C173.768 350.036 173.789 350.136 173.789 350.237C173.789 350.339 173.768 350.439 173.726 350.53C173.683 350.622 173.622 350.704 173.545 350.77C173.361 350.937 173.213 351.14 173.112 351.367C173.011 351.594 172.959 351.84 172.959 352.088C172.959 352.337 173.011 352.582 173.112 352.809C173.213 353.037 173.361 353.24 173.545 353.406C173.623 353.471 173.684 353.553 173.727 353.644C173.769 353.736 173.791 353.836 173.791 353.937C173.791 354.038 173.769 354.138 173.727 354.229C173.684 354.321 173.623 354.402 173.545 354.468C173.361 354.633 173.213 354.836 173.112 355.063C173.011 355.29 172.959 355.535 172.959 355.783C172.959 356.032 173.011 356.277 173.112 356.504C173.213 356.731 173.361 356.933 173.545 357.099C173.622 357.165 173.683 357.247 173.726 357.339C173.768 357.431 173.789 357.531 173.789 357.632C173.789 357.733 173.768 357.833 173.726 357.925C173.683 358.017 173.622 358.099 173.545 358.165C173.361 358.331 173.213 358.534 173.112 358.76C173.011 358.987 172.959 359.233 172.959 359.481C172.959 359.729 173.011 359.974 173.112 360.201C173.213 360.428 173.361 360.631 173.545 360.797C173.623 360.862 173.685 360.944 173.727 361.036C173.77 361.128 173.792 361.228 173.792 361.329C173.792 361.431 173.77 361.531 173.727 361.623C173.685 361.715 173.623 361.796 173.545 361.862C173.361 362.028 173.213 362.231 173.112 362.458C173.011 362.684 172.959 362.93 172.959 363.178C172.959 363.426 173.011 363.672 173.112 363.898C173.213 364.125 173.361 364.328 173.545 364.494C173.622 364.56 173.683 364.642 173.726 364.734C173.768 364.826 173.789 364.926 173.789 365.027C173.789 365.128 173.768 365.228 173.726 365.32C173.683 365.412 173.622 365.493 173.545 365.559C173.361 365.725 173.213 365.928 173.112 366.155C173.011 366.382 172.959 366.627 172.959 366.875C172.959 367.124 173.011 367.369 173.112 367.596C173.213 367.823 173.361 368.025 173.545 368.191C173.623 368.257 173.685 368.339 173.727 368.431C173.77 368.523 173.792 368.623 173.792 368.724C173.792 368.825 173.77 368.926 173.727 369.017C173.685 369.109 173.623 369.191 173.545 369.257C173.361 369.423 173.213 369.626 173.112 369.852C173.011 370.079 172.959 370.325 172.959 370.573C172.959 370.821 173.011 371.066 173.112 371.293C173.213 371.52 173.361 371.723 173.545 371.889C173.622 371.955 173.683 372.036 173.726 372.128C173.768 372.22 173.789 372.32 173.789 372.421C173.789 372.523 173.768 372.622 173.726 372.714C173.683 372.806 173.622 372.888 173.545 372.954C173.361 373.12 173.213 373.324 173.112 373.551C173.011 373.778 172.959 374.024 172.959 374.272C172.959 374.521 173.011 374.766 173.112 374.993C173.213 375.22 173.361 375.424 173.545 375.59C173.623 375.656 173.685 375.737 173.727 375.829C173.77 375.921 173.792 376.021 173.792 376.123C173.792 376.224 173.77 376.324 173.727 376.416C173.685 376.508 173.623 376.59 173.545 376.655C173.361 376.821 173.213 377.024 173.112 377.251C173.011 377.478 172.959 377.723 172.959 377.971C172.959 378.22 173.011 378.465 173.112 378.692C173.213 378.918 173.361 379.121 173.545 379.287C173.622 379.353 173.683 379.435 173.726 379.527C173.768 379.619 173.789 379.719 173.789 379.82C173.789 379.921 173.768 380.021 173.726 380.113C173.683 380.205 173.622 380.287 173.545 380.353C173.361 380.519 173.213 380.722 173.112 380.949C173.011 381.176 172.959 381.422 172.959 381.671C172.959 381.919 173.011 382.165 173.112 382.392C173.213 382.619 173.361 382.822 173.545 382.989C173.623 383.054 173.685 383.136 173.727 383.228C173.77 383.32 173.792 383.42 173.792 383.521C173.792 383.623 173.77 383.723 173.727 383.815C173.685 383.907 173.623 383.988 173.545 384.054C173.361 384.22 173.213 384.423 173.112 384.65C173.011 384.876 172.959 385.122 172.959 385.37C172.959 385.618 173.011 385.864 173.112 386.09C173.213 386.317 173.361 386.52 173.545 386.686C173.622 386.752 173.683 386.834 173.726 386.926C173.768 387.018 173.789 387.118 173.789 387.219C173.789 387.32 173.768 387.42 173.726 387.512C173.683 387.604 173.622 387.685 173.545 387.751C173.361 387.918 173.213 388.121 173.112 388.348C173.011 388.575 172.959 388.821 172.959 389.069C172.959 389.318 173.011 389.564 173.112 389.791C173.213 390.018 173.361 390.221 173.545 390.387C173.623 390.453 173.685 390.535 173.727 390.627C173.77 390.719 173.792 390.819 173.792 390.92C173.792 391.021 173.77 391.121 173.727 391.213C173.685 391.305 173.623 391.387 173.545 391.453C173.361 391.619 173.213 391.822 173.112 392.049C173.011 392.276 172.959 392.522 172.959 392.771C172.959 393.019 173.011 393.265 173.112 393.492C173.213 393.719 173.361 393.922 173.545 394.088C173.622 394.155 173.683 394.236 173.726 394.328C173.768 394.42 173.789 394.52 173.789 394.621C173.789 394.722 173.768 394.822 173.726 394.914C173.683 395.006 173.622 395.088 173.545 395.154C173.361 395.32 173.213 395.523 173.112 395.751C173.011 395.978 172.959 396.223 172.959 396.472C172.959 396.72 173.011 396.966 173.112 397.193C173.213 397.42 173.361 397.624 173.545 397.79C173.623 397.855 173.685 397.937 173.727 398.029C173.77 398.121 173.792 398.221 173.792 398.323C173.792 398.424 173.77 398.524 173.727 398.616C173.685 398.708 173.623 398.79 173.545 398.855C173.361 399.021 173.213 399.224 173.112 399.451C173.011 399.677 172.959 399.923 172.959 400.171C172.959 400.419 173.011 400.665 173.112 400.892C173.213 401.118 173.361 401.321 173.545 401.487C173.622 401.553 173.683 401.635 173.726 401.727C173.768 401.819 173.789 401.919 173.789 402.02C173.789 402.121 173.768 402.221 173.726 402.313C173.683 402.405 173.622 402.487 173.545 402.553C173.361 402.719 173.213 402.922 173.112 403.149C173.011 403.376 172.959 403.622 172.959 403.87C172.959 404.119 173.011 404.365 173.112 404.592C173.213 404.819 173.361 405.022 173.545 405.188C173.623 405.254 173.684 405.335 173.727 405.427C173.769 405.518 173.791 405.618 173.791 405.719C173.791 405.82 173.769 405.92 173.727 406.012C173.684 406.103 173.623 406.185 173.545 406.25C173.361 406.416 173.213 406.619 173.112 406.845C173.011 407.072 172.959 407.318 172.959 407.566C172.959 407.814 173.011 408.059 173.112 408.286C173.213 408.513 173.361 408.716 173.545 408.882C173.622 408.948 173.683 409.03 173.726 409.122C173.768 409.213 173.789 409.313 173.789 409.414C173.789 409.516 173.768 409.615 173.726 409.707C173.683 409.799 173.622 409.881 173.545 409.947C173.361 410.113 173.213 410.316 173.112 410.543C173.011 410.769 172.959 411.015 172.959 411.263C172.959 411.511 173.011 411.757 173.112 411.984C173.213 412.21 173.361 412.413 173.545 412.579C173.623 412.645 173.685 412.726 173.727 412.818C173.77 412.91 173.792 413.01 173.792 413.112C173.792 413.213 173.77 413.313 173.727 413.405C173.685 413.497 173.623 413.579 173.545 413.644C173.215 414.007 173.011 414.468 172.965 414.956C172.965 415.354 172.965 416.809 174.058 416.809H173.553C164.549 416.809 157.253 410.416 157.253 402.533V342.823H174.062C173.518 342.823 173.907 343.03 173.549 343.364C173.365 343.53 173.217 343.733 173.116 343.96C173.015 344.187 172.963 344.433 172.963 344.682C172.963 344.93 173.015 345.176 173.116 345.403C173.217 345.63 173.365 345.833 173.549 346C173.627 346.065 173.689 346.147 173.731 346.239C173.774 346.331 173.796 346.431 173.796 346.532C173.796 346.634 173.774 346.734 173.731 346.826C173.689 346.918 173.627 346.999 173.549 347.065L173.545 347.073Z" fill="#F7F3EF" stroke="#070707" stroke-width="1" stroke-linecap="round" stroke-linejoin="round"/>
<path d="M167.837 342.823H157.261V307.412C157.261 304.856 159.647 302.781 162.549 302.781C165.471 302.781 167.837 304.856 167.837 307.412V342.823Z" fill="#F7F3EF" stroke="#070707" stroke-width="1" stroke-linecap="round" stroke-linejoin="round"/>
<path d="M223.817 365.619C223.817 374.159 222.191 382.019 220.509 388.252H195.491C193.809 388.252 192.537 386.912 192.859 385.469C194.227 378.942 194.893 372.288 194.847 365.619C194.847 357 193.829 349.081 192.124 342.823H220.454C222.171 349.081 223.817 357 223.817 365.619Z" fill="#F7F3EF" stroke="#070707" stroke-width="1" stroke-linecap="round" stroke-linejoin="round"/>
<path d="M202.655 342.823H192.088V307.412C192.088 304.856 194.453 302.781 197.375 302.781C200.293 302.781 202.663 304.856 202.663 307.412L202.655 342.823Z" fill="#F7F3EF" stroke="#070707" stroke-width="1" stroke-linecap="round" stroke-linejoin="round"/>
<path d="M257.502 342.505C257.105 368.346 244.959 387.278 244.959 387.278V342.505H257.502Z" fill="#F7F3EF" stroke="#070707" stroke-width="1" stroke-linecap="round" stroke-linejoin="round"/>
<path d="M253.097 342.505H244.963V307.094C244.963 304.709 246.784 302.785 249.03 302.785C251.281 302.785 253.101 304.713 253.101 307.094L253.097 342.505Z" fill="#F7F3EF" stroke="#070707" stroke-width="1" stroke-linecap="round" stroke-linejoin="round"/>
<path d="M305.985 356.253V356.277C305.98 356.866 305.741 357.429 305.322 357.842C304.902 358.256 304.336 358.486 303.747 358.483H303.437C303.533 357.721 303.581 356.953 303.58 356.185C303.58 347.248 297.175 340 289.268 340C281.36 340 274.955 347.248 274.955 356.185C274.955 356.953 275.002 357.721 275.098 358.483H274.78C274.191 358.486 273.625 358.256 273.205 357.842C272.786 357.429 272.547 356.866 272.542 356.277V356.253C272.542 349.128 276.025 342.926 281.169 339.702C282.488 338.891 283.578 337.757 284.336 336.407C285.095 335.058 285.498 333.538 285.507 331.99V306.816C285.507 304.586 287.184 302.781 289.256 302.781C289.756 302.783 290.25 302.891 290.706 303.096C291.162 303.302 291.57 303.601 291.903 303.973C292.618 304.75 293.012 305.769 293.005 306.824V331.998C293.013 333.545 293.415 335.065 294.174 336.415C294.932 337.764 296.021 338.898 297.338 339.71C302.502 342.926 305.985 349.128 305.985 356.253Z" fill="#F7F3EF" stroke="#070707" stroke-width="1" stroke-linecap="round" stroke-linejoin="round"/>
<path d="M300.67 354.742H277.869C277.484 354.742 277.102 354.819 276.745 354.967C276.389 355.115 276.066 355.332 275.793 355.605C275.521 355.878 275.305 356.202 275.158 356.559C275.01 356.916 274.935 357.298 274.935 357.684V360.312C274.935 360.697 275.01 361.079 275.158 361.436C275.305 361.792 275.521 362.116 275.793 362.389C276.066 362.662 276.39 362.878 276.746 363.026C277.102 363.173 277.484 363.25 277.869 363.25H300.67C301.449 363.25 302.197 362.94 302.748 362.389C303.3 361.838 303.611 361.091 303.612 360.312V357.684C303.612 356.903 303.302 356.155 302.75 355.603C302.198 355.052 301.45 354.742 300.67 354.742ZM301.039 360.586H277.5V357.525H301.039V360.586Z" fill="#070707"/>
<path d="M344.982 340.311H336.844V306.852C336.843 306.317 336.948 305.787 337.153 305.293C337.357 304.799 337.657 304.35 338.035 303.972C338.413 303.594 338.862 303.294 339.356 303.09C339.85 302.885 340.38 302.78 340.915 302.781C341.449 302.781 341.978 302.886 342.472 303.091C342.966 303.295 343.414 303.595 343.792 303.973C344.17 304.351 344.469 304.8 344.673 305.294C344.878 305.788 344.982 306.317 344.982 306.852V340.311Z" fill="#F7F3EF" stroke="#070707" stroke-width="1" stroke-linecap="round" stroke-linejoin="round"/>
<path d="M351.868 370.453C357.918 364.403 357.918 354.593 351.868 348.543C345.817 342.492 336.008 342.492 329.957 348.543C323.907 354.593 323.907 364.403 329.957 370.453C336.008 376.503 345.817 376.503 351.868 370.453Z" fill="#F7F3EF" stroke="#070707" stroke-width="1" stroke-linecap="round" stroke-linejoin="round"/>
<path d="M343.827 360.241C344.211 358.638 343.222 357.026 341.619 356.643C340.015 356.259 338.404 357.248 338.02 358.851C337.636 360.455 338.625 362.066 340.229 362.45C341.832 362.834 343.444 361.845 343.827 360.241Z" fill="#F7F3EF" stroke="#070707" stroke-width="1" stroke-linecap="round" stroke-linejoin="round"/>
<path d="M323.716 350.587C325.35 347.437 327.819 344.797 330.851 342.954C333.884 341.111 337.364 340.136 340.913 340.136C344.461 340.136 347.942 341.111 350.974 342.954C354.007 344.797 356.475 347.437 358.109 350.587" stroke="#070707" stroke-width="1" stroke-linecap="round" stroke-linejoin="round"/>
<path d="M340.915 340.135V359.517" stroke="#070707" stroke-width="1" stroke-linecap="round" stroke-linejoin="round"/>
<path d="M37.0707 156.363H16.6321V166.986L37.0707 163.702V156.363Z" fill="#F7F3EF" stroke="#070707" stroke-width="1" stroke-linecap="round" stroke-linejoin="round"/>
<path d="M1 156.359L429.805 156.359V136.914L1 136.914V156.359Z" fill="#F7F3EF" stroke="#070707" stroke-width="1" stroke-linecap="round" stroke-linejoin="round"/>
<path d="M393.421 189.396H413.859V156.359H393.421V189.396Z" fill="#F7F3EF" stroke="#070707" stroke-width="1" stroke-linecap="round" stroke-linejoin="round"/>
<path d="M413.863 156.363H393.425V166.986L413.863 163.702V156.363Z" fill="#F7F3EF" stroke="#070707" stroke-width="1" stroke-linecap="round" stroke-linejoin="round"/>
<path d="M16.6321 189.396H37.0707L37.0707 156.359H16.6321L16.6321 189.396Z" fill="#F7F3EF" stroke="#070707" stroke-width="1" stroke-linecap="round" stroke-linejoin="round"/>
<path d="M413.728 74.9463C413.729 75.1162 413.696 75.2844 413.631 75.4414C413.566 75.5984 413.471 75.7411 413.351 75.8612C413.231 75.9812 413.088 76.0764 412.931 76.1411C412.774 76.2059 412.606 76.2389 412.436 76.2384H377.053V84.5673C377.053 86.577 376.255 88.5044 374.834 89.9254C373.413 91.3465 371.485 92.1448 369.476 92.1448H365.993C364.997 92.1454 364.012 91.9497 363.092 91.5692C362.172 91.1886 361.336 90.6305 360.632 89.9268C359.928 89.2231 359.37 88.3876 358.989 87.468C358.608 86.5484 358.411 85.5628 358.411 84.5673V73.6423H412.428C412.599 73.6418 412.769 73.6752 412.927 73.7406C413.085 73.806 413.229 73.9021 413.35 74.0233C413.471 74.1446 413.566 74.2886 413.631 74.447C413.696 74.6054 413.729 74.7751 413.728 74.9463Z" fill="#F7F3EF" stroke="#070707" stroke-width="1" stroke-linecap="round" stroke-linejoin="round"/>
<path d="M333.043 136.819H323.366L314.004 70.0645H323.68L333.043 136.819Z" fill="#F7F3EF" stroke="#070707" stroke-width="1" stroke-linecap="round" stroke-linejoin="round"/>
<path d="M323.366 136.819H277.917L287.28 70.0645H314.004L323.366 136.819Z" fill="#F7F3EF" stroke="#070707" stroke-width="1" stroke-linecap="round" stroke-linejoin="round"/>
<path d="M293.76 78.0991H293.684C292.916 78.0991 292.293 78.7221 292.293 79.4906V82.4564C292.293 83.2249 292.916 83.8479 293.684 83.8479H293.76C294.529 83.8479 295.151 83.2249 295.151 82.4564V79.4906C295.151 78.7221 294.529 78.0991 293.76 78.0991Z" fill="#F7F3EF" stroke="#070707" stroke-width="1" stroke-linecap="round" stroke-linejoin="round"/>
<path d="M300.316 78.0991H300.24C299.472 78.0991 298.849 78.7221 298.849 79.4906V82.4564C298.849 83.2249 299.472 83.8479 300.24 83.8479H300.316C301.084 83.8479 301.707 83.2249 301.707 82.4564V79.4906C301.707 78.7221 301.084 78.0991 300.316 78.0991Z" fill="#F7F3EF" stroke="#070707" stroke-width="1" stroke-linecap="round" stroke-linejoin="round"/>
<path d="M306.872 78.0991H306.796C306.028 78.0991 305.405 78.7221 305.405 79.4906V82.4564C305.405 83.2249 306.028 83.8479 306.796 83.8479H306.872C307.64 83.8479 308.263 83.2249 308.263 82.4564V79.4906C308.263 78.7221 307.64 78.0991 306.872 78.0991Z" fill="#F7F3EF" stroke="#070707" stroke-width="1" stroke-linecap="round" stroke-linejoin="round"/>
<path d="M290.639 88.7021H290.564C289.795 88.7021 289.172 89.3251 289.172 90.0936V93.0594C289.172 93.8279 289.795 94.4509 290.564 94.4509H290.639C291.408 94.4509 292.031 93.8279 292.031 93.0594V90.0936C292.031 89.3251 291.408 88.7021 290.639 88.7021Z" fill="#F7F3EF" stroke="#070707" stroke-width="1" stroke-linecap="round" stroke-linejoin="round"/>
<path d="M297.195 88.7021H297.119C296.351 88.7021 295.728 89.3251 295.728 90.0936V93.0594C295.728 93.8279 296.351 94.4509 297.119 94.4509H297.195C297.963 94.4509 298.586 93.8279 298.586 93.0594V90.0936C298.586 89.3251 297.963 88.7021 297.195 88.7021Z" fill="#F7F3EF" stroke="#070707" stroke-width="1" stroke-linecap="round" stroke-linejoin="round"/>
<path d="M303.751 88.7021H303.675C302.907 88.7021 302.284 89.3251 302.284 90.0936V93.0594C302.284 93.8279 302.907 94.4509 303.675 94.4509H303.751C304.519 94.4509 305.142 93.8279 305.142 93.0594V90.0936C305.142 89.3251 304.519 88.7021 303.751 88.7021Z" fill="#F7F3EF" stroke="#070707" stroke-width="1" stroke-linecap="round" stroke-linejoin="round"/>
<path d="M310.307 88.7021H310.231C309.462 88.7021 308.84 89.3251 308.84 90.0936V93.0594C308.84 93.8279 309.462 94.4509 310.231 94.4509H310.307C311.075 94.4509 311.698 93.8279 311.698 93.0594V90.0936C311.698 89.3251 311.075 88.7021 310.307 88.7021Z" fill="#F7F3EF" stroke="#070707" stroke-width="1" stroke-linecap="round" stroke-linejoin="round"/>
<path d="M290.639 99.3049H290.564C289.795 99.3049 289.172 99.9279 289.172 100.696V103.662C289.172 104.431 289.795 105.054 290.564 105.054H290.639C291.408 105.054 292.031 104.431 292.031 103.662V100.696C292.031 99.9279 291.408 99.3049 290.639 99.3049Z" fill="#F7F3EF" stroke="#070707" stroke-width="1" stroke-linecap="round" stroke-linejoin="round"/>
<path d="M297.195 99.3049H297.119C296.351 99.3049 295.728 99.9279 295.728 100.696V103.662C295.728 104.431 296.351 105.054 297.119 105.054H297.195C297.963 105.054 298.586 104.431 298.586 103.662V100.696C298.586 99.9279 297.963 99.3049 297.195 99.3049Z" fill="#F7F3EF" stroke="#070707" stroke-width="1" stroke-linecap="round" stroke-linejoin="round"/>
<path d="M303.751 99.3049H303.675C302.907 99.3049 302.284 99.9279 302.284 100.696V103.662C302.284 104.431 302.907 105.054 303.675 105.054H303.751C304.519 105.054 305.142 104.431 305.142 103.662V100.696C305.142 99.9279 304.519 99.3049 303.751 99.3049Z" fill="#F7F3EF" stroke="#070707" stroke-width="1" stroke-linecap="round" stroke-linejoin="round"/>
<path d="M310.307 99.3049H310.231C309.462 99.3049 308.84 99.9279 308.84 100.696V103.662C308.84 104.431 309.462 105.054 310.231 105.054H310.307C311.075 105.054 311.698 104.431 311.698 103.662V100.696C311.698 99.9279 311.075 99.3049 310.307 99.3049Z" fill="#F7F3EF" stroke="#070707" stroke-width="1" stroke-linecap="round" stroke-linejoin="round"/>
<path d="M287.518 109.908H287.443C286.674 109.908 286.051 110.531 286.051 111.299V114.265C286.051 115.034 286.674 115.657 287.443 115.657H287.518C288.287 115.657 288.91 115.034 288.91 114.265V111.299C288.91 110.531 288.287 109.908 287.518 109.908Z" fill="#F7F3EF" stroke="#070707" stroke-width="1" stroke-linecap="round" stroke-linejoin="round"/>
<path d="M294.074 109.908H293.999C293.23 109.908 292.607 110.531 292.607 111.299V114.265C292.607 115.034 293.23 115.657 293.999 115.657H294.074C294.843 115.657 295.466 115.034 295.466 114.265V111.299C295.466 110.531 294.843 109.908 294.074 109.908Z" fill="#F7F3EF" stroke="#070707" stroke-width="1" stroke-linecap="round" stroke-linejoin="round"/>
<path d="M300.626 109.908H300.55C299.782 109.908 299.159 110.531 299.159 111.299V114.265C299.159 115.034 299.782 115.657 300.55 115.657H300.626C301.394 115.657 302.017 115.034 302.017 114.265V111.299C302.017 110.531 301.394 109.908 300.626 109.908Z" fill="#F7F3EF" stroke="#070707" stroke-width="1" stroke-linecap="round" stroke-linejoin="round"/>
<path d="M307.182 109.908H307.106C306.338 109.908 305.715 110.531 305.715 111.299V114.265C305.715 115.034 306.338 115.657 307.106 115.657H307.182C307.95 115.657 308.573 115.034 308.573 114.265V111.299C308.573 110.531 307.95 109.908 307.182 109.908Z" fill="#F7F3EF" stroke="#070707" stroke-width="1" stroke-linecap="round" stroke-linejoin="round"/>
<path d="M313.737 109.908H313.662C312.893 109.908 312.27 110.531 312.27 111.299V114.265C312.27 115.034 312.893 115.657 313.662 115.657H313.737C314.506 115.657 315.129 115.034 315.129 114.265V111.299C315.129 110.531 314.506 109.908 313.737 109.908Z" fill="#F7F3EF" stroke="#070707" stroke-width="1" stroke-linecap="round" stroke-linejoin="round"/>
<path d="M287.518 120.507H287.443C286.674 120.507 286.051 121.13 286.051 121.898V124.864C286.051 125.633 286.674 126.256 287.443 126.256H287.518C288.287 126.256 288.91 125.633 288.91 124.864V121.898C288.91 121.13 288.287 120.507 287.518 120.507Z" fill="#F7F3EF" stroke="#070707" stroke-width="1" stroke-linecap="round" stroke-linejoin="round"/>
<path d="M294.074 120.507H293.999C293.23 120.507 292.607 121.13 292.607 121.898V124.864C292.607 125.633 293.23 126.256 293.999 126.256H294.074C294.843 126.256 295.466 125.633 295.466 124.864V121.898C295.466 121.13 294.843 120.507 294.074 120.507Z" fill="#F7F3EF" stroke="#070707" stroke-width="1" stroke-linecap="round" stroke-linejoin="round"/>
<path d="M300.626 120.507H300.55C299.782 120.507 299.159 121.13 299.159 121.898V124.864C299.159 125.633 299.782 126.256 300.55 126.256H300.626C301.394 126.256 302.017 125.633 302.017 124.864V121.898C302.017 121.13 301.394 120.507 300.626 120.507Z" fill="#F7F3EF" stroke="#070707" stroke-width="1" stroke-linecap="round" stroke-linejoin="round"/>
<path d="M307.182 120.507H307.106C306.338 120.507 305.715 121.13 305.715 121.898V124.864C305.715 125.633 306.338 126.256 307.106 126.256H307.182C307.95 126.256 308.573 125.633 308.573 124.864V121.898C308.573 121.13 307.95 120.507 307.182 120.507Z" fill="#F7F3EF" stroke="#070707" stroke-width="1" stroke-linecap="round" stroke-linejoin="round"/>
<path d="M313.737 120.507H313.662C312.893 120.507 312.27 121.13 312.27 121.898V124.864C312.27 125.633 312.893 126.256 313.662 126.256H313.737C314.506 126.256 315.129 125.633 315.129 124.864V121.898C315.129 121.13 314.506 120.507 313.737 120.507Z" fill="#F7F3EF" stroke="#070707" stroke-width="1" stroke-linecap="round" stroke-linejoin="round"/>
<path d="M311.615 57.9985H299.346C296.146 57.9985 293.077 59.2698 290.814 61.5326C288.551 63.7954 287.28 66.8644 287.28 70.0645H323.68C323.68 66.8644 322.409 63.7954 320.146 61.5326C317.884 59.2698 314.815 57.9985 311.615 57.9985Z" fill="#F7F3EF" stroke="#070707" stroke-width="1" stroke-linecap="round" stroke-linejoin="round"/>
<path d="M299.032 57.9985H302.26C305.376 57.9985 308.364 59.2363 310.567 61.4394C312.77 63.6426 314.008 66.6307 314.008 69.7465V70.0645H287.28V69.7465C287.28 68.2034 287.584 66.6754 288.174 65.2498C288.765 63.8242 289.631 62.529 290.722 61.438C291.813 60.3471 293.109 59.4818 294.535 58.8917C295.961 58.3015 297.489 57.998 299.032 57.9985Z" fill="#F7F3EF" stroke="#070707" stroke-width="1" stroke-linecap="round" stroke-linejoin="round"/>
<path d="M392.685 79.9197V132.195C392.686 133.417 392.203 134.591 391.341 135.457C390.478 136.324 389.308 136.813 388.085 136.819H359.358C358.749 136.821 358.146 136.704 357.583 136.472C357.02 136.241 356.508 135.901 356.077 135.471C355.646 135.042 355.304 134.531 355.07 133.969C354.837 133.406 354.718 132.804 354.718 132.195V104.95C354.721 96.1768 352.463 87.5506 348.162 79.9038L392.685 79.9197Z" fill="#F7F3EF" stroke="#070707" stroke-width="1" stroke-linecap="round" stroke-linejoin="round"/>
<path d="M392.685 89.8945H387.274" stroke="#070707" stroke-width="1" stroke-linecap="round" stroke-linejoin="round"/>
<path d="M392.685 102.485H387.274" stroke="#070707" stroke-width="1" stroke-linecap="round" stroke-linejoin="round"/>
<path d="M392.685 96.1919H381.86" stroke="#070707" stroke-width="1" stroke-linecap="round" stroke-linejoin="round"/>
<path d="M392.685 108.783H381.86" stroke="#070707" stroke-width="1" stroke-linecap="round" stroke-linejoin="round"/>
<path d="M392.685 115.076H387.274" stroke="#070707" stroke-width="1" stroke-linecap="round" stroke-linejoin="round"/>
<path d="M392.685 127.667H387.274" stroke="#070707" stroke-width="1" stroke-linecap="round" stroke-linejoin="round"/>
<path d="M392.685 121.374H381.86" stroke="#070707" stroke-width="1" stroke-linecap="round" stroke-linejoin="round"/>
<path d="M73.9366 19.896H141.379V53.6887C141.379 57.2504 139.964 60.6663 137.445 63.1849C134.927 65.7034 131.511 67.1183 127.949 67.1183H87.3702C83.8084 67.1183 80.3925 65.7034 77.874 63.1849C75.3555 60.6663 73.9406 57.2504 73.9406 53.6887V19.896H73.9366Z" fill="#F7F3EF" stroke="#070707" stroke-width="1" stroke-linecap="round" stroke-linejoin="round"/>
<path d="M141.379 19.896H152.332C153.307 19.896 154.242 20.2834 154.932 20.9731C155.622 21.6627 156.009 22.5981 156.009 23.5734V24.0823C156.009 25.0576 155.622 25.993 154.932 26.6827C154.242 27.3723 153.307 27.7598 152.332 27.7598H141.359V19.896H141.379Z" fill="#F7F3EF" stroke="#070707" stroke-width="1" stroke-linecap="round" stroke-linejoin="round"/>
<path d="M73.9247 27.7559H62.952C61.9767 27.7559 61.0413 27.3684 60.3516 26.6788C59.662 25.9891 59.2746 25.0537 59.2746 24.0784V23.5695C59.2746 22.5942 59.662 21.6589 60.3516 20.9692C61.0413 20.2795 61.9767 19.8921 62.952 19.8921H73.9247V27.7559Z" fill="#F7F3EF" stroke="#070707" stroke-width="1" stroke-linecap="round" stroke-linejoin="round"/>
<path d="M62.0853 36.4624H153.214V86.8493C153.214 90.411 151.799 93.8269 149.281 96.3455C146.762 98.864 143.346 100.279 139.785 100.279H75.5308C73.7658 100.281 72.0178 99.9352 70.3866 99.2612C68.7554 98.5872 67.2731 97.5983 66.0243 96.3511C64.7756 95.1038 63.7849 93.6226 63.1091 91.9923C62.4332 90.3619 62.0853 88.6142 62.0853 86.8493V36.4624Z" fill="#F7F3EF" stroke="#070707" stroke-width="1" stroke-linecap="round" stroke-linejoin="round"/>
<path d="M153.214 36.4624H168.039C169.357 36.4635 170.62 36.9875 171.551 37.9193C172.482 38.8512 173.005 40.1146 173.005 41.4319V42.1157C173.005 43.4337 172.481 44.6977 171.549 45.6297C170.617 46.5617 169.353 47.0852 168.035 47.0852H153.214V36.4624Z" fill="#F7F3EF" stroke="#070707" stroke-width="1" stroke-linecap="round" stroke-linejoin="round"/>
<path d="M62.1012 47.0894H47.2761C45.9609 47.0851 44.701 46.5597 43.7724 45.6282C42.8439 44.6967 42.3225 43.4351 42.3225 42.1198V41.436C42.3225 40.118 42.8461 38.854 43.7781 37.9221C44.71 36.9901 45.974 36.4665 47.292 36.4665H62.1012V47.0894Z" fill="#F7F3EF" stroke="#070707" stroke-width="1" stroke-linecap="round" stroke-linejoin="round"/>
<path d="M151.791 136.608H63.5324C59.971 136.607 56.5557 135.192 54.0374 132.674C51.5191 130.155 50.1038 126.74 50.1028 123.179V55.9907H165.221V123.179C165.221 126.74 163.806 130.156 161.287 132.675C158.769 135.193 155.353 136.608 151.791 136.608Z" fill="#F7F3EF" stroke="#070707" stroke-width="1" stroke-linecap="round" stroke-linejoin="round"/>
<path d="M185.329 69.3806H165.221V59.6006H185.329C186.626 59.6006 187.87 60.1158 188.787 61.0328C189.704 61.9499 190.219 63.1937 190.219 64.4906C190.219 65.7875 189.704 67.0313 188.787 67.9483C187.87 68.8654 186.626 69.3806 185.329 69.3806Z" fill="#F7F3EF" stroke="#070707" stroke-width="1" stroke-linecap="round" stroke-linejoin="round"/>
<path d="M29.9783 69.3806H50.0948V59.6006H29.9783C28.6814 59.6006 27.4376 60.1158 26.5205 61.0328C25.6035 61.9499 25.0883 63.1937 25.0883 64.4906C25.0877 65.1329 25.2139 65.769 25.4594 66.3625C25.705 66.9561 26.0652 67.4953 26.5193 67.9495C26.9735 68.4037 27.5128 68.7639 28.1063 69.0094C28.6998 69.255 29.3359 69.3811 29.9783 69.3806Z" fill="#F7F3EF" stroke="#070707" stroke-width="1" stroke-linecap="round" stroke-linejoin="round"/>
<path d="M165.384 54.1699H49.8722C48.3682 54.1699 47.1489 55.3892 47.1489 56.8932V56.8972C47.1489 58.4012 48.3682 59.6205 49.8722 59.6205H165.384C166.888 59.6205 168.107 58.4012 168.107 56.8972V56.8932C168.107 55.3892 166.888 54.1699 165.384 54.1699Z" fill="#F7F3EF" stroke="#070707" stroke-width="1" stroke-linecap="round" stroke-linejoin="round"/>
<path d="M141.379 19.896H73.9366C77.2085 13.6145 91.0635 8.89941 107.662 8.89941C124.26 8.89941 138.111 13.6145 141.379 19.896Z" fill="#F7F3EF" stroke="#070707" stroke-width="1" stroke-linecap="round" stroke-linejoin="round"/>
<path d="M114.118 1H101.197C100.908 1.00054 100.623 1.07175 100.367 1.20744C100.112 1.34314 99.8932 1.5392 99.7306 1.77861C99.5679 2.01802 99.4663 2.2935 99.4344 2.58114C99.4024 2.86879 99.4413 3.15987 99.5475 3.42909L101.841 9.22156H113.482L115.756 3.42909C115.862 3.1608 115.901 2.87079 115.869 2.58409C115.838 2.29739 115.738 2.02262 115.576 1.7835C115.415 1.54438 115.198 1.3481 114.944 1.21159C114.69 1.07509 114.406 1.00247 114.118 1Z" fill="#F7F3EF" stroke="#070707" stroke-width="1" stroke-linecap="round" stroke-linejoin="round"/>
<path d="M247.126 85.5652V132.656C247.126 134.958 244.721 136.819 241.751 136.819H208.328C205.358 136.819 202.953 134.958 202.953 132.656V108.111C202.953 100.211 200.325 92.447 195.324 85.5652H247.126Z" fill="#F7F3EF" stroke="#070707" stroke-width="1" stroke-linecap="round" stroke-linejoin="round"/>
<path d="M265.637 88.2805V111.192C264.562 111.194 263.53 110.769 262.768 110.011C262.006 109.253 261.577 108.224 261.573 107.149V92.4788C261.573 91.7576 261.287 91.0659 260.777 90.5559C260.267 90.046 259.575 89.7595 258.854 89.7595H247.13V85.5652H262.909C263.267 85.5636 263.621 85.6327 263.952 85.7685C264.283 85.9042 264.584 86.104 264.837 86.3563C265.09 86.6086 265.292 86.9084 265.429 87.2387C265.566 87.5689 265.637 87.9229 265.637 88.2805Z" fill="#F7F3EF" stroke="#070707" stroke-width="1" stroke-linecap="round" stroke-linejoin="round"/>
</svg>
