<svg width="300" height="418" viewBox="0 0 300 418" fill="none" xmlns="http://www.w3.org/2000/svg">
<path d="M298.89 416.996H1" stroke="#070707" stroke-width="1" stroke-linecap="round" stroke-linejoin="round"/>
<path d="M54.7421 105.944V141.092H24.3097" stroke="#070707" stroke-width="1" stroke-linecap="round" stroke-linejoin="round"/>
<path d="M85.1767 105.944V141.092H54.7415V105.944" stroke="#070707" stroke-width="1" stroke-linecap="round" stroke-linejoin="round"/>
<path d="M24.3097 176.241H54.7421V141.093H24.3097" stroke="#070707" stroke-width="1" stroke-linecap="round" stroke-linejoin="round"/>
<path d="M85.1739 141.093H54.7415V176.241H85.1739V141.093Z" stroke="#070707" stroke-width="1" stroke-linecap="round" stroke-linejoin="round"/>
<path d="M115.61 105.944V141.092H85.1775V105.944" stroke="#070707" stroke-width="1" stroke-linecap="round" stroke-linejoin="round"/>
<path d="M146.042 105.944V141.092H115.609V105.944" stroke="#070707" stroke-width="1" stroke-linecap="round" stroke-linejoin="round"/>
<path d="M115.61 141.093H85.1775V176.241H115.61V141.093Z" stroke="#070707" stroke-width="1" stroke-linecap="round" stroke-linejoin="round"/>
<path d="M146.042 141.093H115.609V176.241H146.042V141.093Z" stroke="#070707" stroke-width="1" stroke-linecap="round" stroke-linejoin="round"/>
<path d="M24.3097 176.238H54.7421V211.386H24.3097" stroke="#070707" stroke-width="1" stroke-linecap="round" stroke-linejoin="round"/>
<path d="M85.1739 176.238H54.7415V211.386H85.1739V176.238Z" stroke="#070707" stroke-width="1" stroke-linecap="round" stroke-linejoin="round"/>
<path d="M24.3097 211.387H54.7421V246.535H24.3097" stroke="#070707" stroke-width="1" stroke-linecap="round" stroke-linejoin="round"/>
<path d="M85.1739 211.387H54.7415V246.535H85.1739V211.387Z" stroke="#070707" stroke-width="1" stroke-linecap="round" stroke-linejoin="round"/>
<path d="M115.61 176.238H85.1775V211.386H115.61V176.238Z" stroke="#070707" stroke-width="1" stroke-linecap="round" stroke-linejoin="round"/>
<path d="M146.042 176.238H115.609V211.386H146.042V176.238Z" stroke="#070707" stroke-width="1" stroke-linecap="round" stroke-linejoin="round"/>
<path d="M115.61 211.387H85.1775V246.535H115.61V211.387Z" stroke="#070707" stroke-width="1" stroke-linecap="round" stroke-linejoin="round"/>
<path d="M146.042 211.387H115.609V246.535H146.042V211.387Z" stroke="#070707" stroke-width="1" stroke-linecap="round" stroke-linejoin="round"/>
<path d="M176.477 105.944V141.092H146.042V105.944" stroke="#070707" stroke-width="1" stroke-linecap="round" stroke-linejoin="round"/>
<path d="M176.477 105.944V141.092H206.909V105.944" stroke="#070707" stroke-width="1" stroke-linecap="round" stroke-linejoin="round"/>
<path d="M176.474 141.093H146.042V176.241H176.474V141.093Z" stroke="#070707" stroke-width="1" stroke-linecap="round" stroke-linejoin="round"/>
<path d="M206.909 141.093H176.477V176.241H206.909V141.093Z" stroke="#070707" stroke-width="1" stroke-linecap="round" stroke-linejoin="round"/>
<path d="M237.345 105.944V141.092H206.91V105.944" stroke="#070707" stroke-width="1" stroke-linecap="round" stroke-linejoin="round"/>
<path d="M267.777 141.093H237.345V176.241H267.777" stroke="#070707" stroke-width="1" stroke-linecap="round" stroke-linejoin="round"/>
<path d="M267.777 141.092H237.345V105.944" stroke="#070707" stroke-width="1" stroke-linecap="round" stroke-linejoin="round"/>
<path d="M237.342 141.093H206.91V176.241H237.342V141.093Z" stroke="#070707" stroke-width="1" stroke-linecap="round" stroke-linejoin="round"/>
<path d="M176.474 176.238H146.042V211.386H176.474V176.238Z" stroke="#070707" stroke-width="1" stroke-linecap="round" stroke-linejoin="round"/>
<path d="M206.909 176.238H176.477V211.386H206.909V176.238Z" stroke="#070707" stroke-width="1" stroke-linecap="round" stroke-linejoin="round"/>
<path d="M176.474 211.387H146.042V246.535H176.474V211.387Z" stroke="#070707" stroke-width="1" stroke-linecap="round" stroke-linejoin="round"/>
<path d="M206.909 211.387H176.477V246.535H206.909V211.387Z" stroke="#070707" stroke-width="1" stroke-linecap="round" stroke-linejoin="round"/>
<path d="M237.342 176.238H206.91V211.386H237.342V176.238Z" stroke="#070707" stroke-width="1" stroke-linecap="round" stroke-linejoin="round"/>
<path d="M267.777 211.387H237.345V246.535H267.777" stroke="#070707" stroke-width="1" stroke-linecap="round" stroke-linejoin="round"/>
<path d="M267.777 211.386H237.345V176.238H267.777" stroke="#070707" stroke-width="1" stroke-linecap="round" stroke-linejoin="round"/>
<path d="M237.342 211.387H206.91V246.535H237.342V211.387Z" stroke="#070707" stroke-width="1" stroke-linecap="round" stroke-linejoin="round"/>
<path d="M111.76 191.273H168.402V233.154C168.402 235.258 167.567 237.275 166.079 238.763C164.592 240.25 162.575 241.086 160.471 241.086H119.694C117.591 241.086 115.574 240.25 114.086 238.763C112.599 237.275 111.763 235.258 111.763 233.154V191.273H111.76Z" fill="#F7F3EF" stroke="#070707" stroke-width="1" stroke-linecap="round" stroke-linejoin="round"/>
<path d="M168.402 195.416H175.007L182.117 190.989C182.303 190.843 182.438 190.642 182.501 190.415C182.565 190.187 182.554 189.945 182.471 189.724C182.388 189.543 182.265 189.382 182.112 189.256C181.958 189.129 181.777 189.04 181.583 188.994C181.389 188.948 181.187 188.947 180.993 188.991C180.798 189.035 180.617 189.123 180.462 189.248L174.097 193.078H168.402V195.416Z" fill="#F7F3EF" stroke="#070707" stroke-width="1" stroke-linecap="round" stroke-linejoin="round"/>
<path d="M111.758 195.416H105.149L98.0427 190.989C97.8563 190.843 97.7215 190.642 97.6577 190.415C97.594 190.187 97.6047 189.945 97.6884 189.724C97.7709 189.543 97.8938 189.382 98.0477 189.256C98.2016 189.129 98.3824 189.04 98.5763 188.994C98.7702 188.948 98.9721 188.947 99.1664 188.991C99.3607 189.035 99.5424 189.123 99.6975 189.248L106.062 193.078H111.749L111.758 195.416Z" fill="#F7F3EF" stroke="#070707" stroke-width="1" stroke-linecap="round" stroke-linejoin="round"/>
<path d="M168.402 191.199H111.76C114.506 187.325 126.151 184.405 140.081 184.405C154.012 184.405 165.657 187.322 168.402 191.199Z" fill="#F7F3EF" stroke="#070707" stroke-width="1" stroke-linecap="round" stroke-linejoin="round"/>
<path d="M144.747 179.348H136.052C135.221 179.348 134.632 180.129 134.945 180.848L136.483 184.426H144.304L145.853 180.843C146.152 180.123 145.577 179.348 144.747 179.348Z" fill="#F7F3EF" stroke="#070707" stroke-width="1" stroke-linecap="round" stroke-linejoin="round"/>
<path d="M80.7193 241.085H48.6181C43.374 241.085 38.6806 237.609 36.8459 232.362L34.7178 226.274H94.6196L92.4916 232.362C90.6568 237.609 85.9634 241.085 80.7193 241.085Z" fill="#F7F3EF" stroke="#070707" stroke-width="1" stroke-linecap="round" stroke-linejoin="round"/>
<path d="M95.3417 223.833H33.9981C33.3409 223.833 32.8081 224.365 32.8081 225.022V225.089C32.8081 225.746 33.3409 226.279 33.9981 226.279H95.3417C95.9989 226.279 96.5317 225.746 96.5317 225.089V225.022C96.5317 224.365 95.9989 223.833 95.3417 223.833Z" fill="#F7F3EF" stroke="#070707" stroke-width="1" stroke-linecap="round" stroke-linejoin="round"/>
<path d="M115.789 228.361H93.9351L94.6739 226.283H115.789V228.361Z" fill="#F7F3EF" stroke="#070707" stroke-width="1" stroke-linecap="round" stroke-linejoin="round"/>
<path d="M137.878 224.874H117.416C116.314 224.874 115.421 225.767 115.421 226.869V227.287C115.421 228.389 116.314 229.282 117.416 229.282H137.878C138.98 229.282 139.873 228.389 139.873 227.287V226.869C139.873 225.767 138.98 224.874 137.878 224.874Z" fill="#F7F3EF" stroke="#070707" stroke-width="1" stroke-linecap="round" stroke-linejoin="round"/>
<path d="M198.621 111.204C146.282 112.524 126.205 139.099 137.911 165.629C158.641 212.558 76.4512 203.01 67.4878 212.475C60.0658 220.32 76.6034 223.904 76.6034 223.904H61.347C61.347 223.904 35.8128 214.218 46.6635 196.463C57.5143 178.708 88.6081 181.691 88.6081 163.504C88.6081 145.317 31.7835 138.886 47.5408 111.273L198.621 111.204Z" fill="#F7F3EF" stroke="#070707" stroke-width="1" stroke-linecap="round" stroke-linejoin="round"/>
<path d="M273.841 93.5193H19.1705C17.5886 93.5193 16.3063 94.8016 16.3063 96.3835V108.15C16.3063 109.732 17.5886 111.014 19.1705 111.014H273.841C275.422 111.014 276.705 109.732 276.705 108.15V96.3835C276.705 94.8016 275.422 93.5193 273.841 93.5193Z" fill="#F7F3EF" stroke="#070707" stroke-width="1" stroke-linecap="round" stroke-linejoin="round"/>
<path d="M245.038 93.3462H47.9727L114.187 38.6248H178.826L245.038 93.3462Z" fill="#F7F3EF" stroke="#070707" stroke-width="1" stroke-linecap="round" stroke-linejoin="round"/>
<path d="M178.594 1H114.419V38.6248H178.594V1Z" fill="#F7F3EF" stroke="#070707" stroke-width="1" stroke-linecap="round" stroke-linejoin="round"/>
<path d="M229.511 130.266H206.735C205.385 130.266 204.091 129.73 203.136 128.776C202.181 127.822 201.644 126.527 201.643 125.177V101.259H224.419V125.177C224.419 126.527 224.956 127.822 225.911 128.776C226.866 129.73 228.161 130.266 229.511 130.266Z" fill="#F7F3EF" stroke="#070707" stroke-width="1" stroke-linecap="round" stroke-linejoin="round"/>
<path d="M225.462 104.982L221.35 100.269" stroke="#070707" stroke-width="1" stroke-linecap="round" stroke-linejoin="round"/>
<path d="M200.821 104.982L204.934 100.269" stroke="#070707" stroke-width="1" stroke-linecap="round" stroke-linejoin="round"/>
<path d="M208.559 108.813H218.226" stroke="#070707" stroke-width="1" stroke-linecap="round" stroke-linejoin="round"/>
<path d="M208.559 113.705H218.226" stroke="#070707" stroke-width="1" stroke-linecap="round" stroke-linejoin="round"/>
<path d="M208.559 118.597H218.226" stroke="#070707" stroke-width="1" stroke-linecap="round" stroke-linejoin="round"/>
<path d="M208.559 123.484H218.226" stroke="#070707" stroke-width="1" stroke-linecap="round" stroke-linejoin="round"/>
<path d="M249.12 104.602H232.532V121.619H249.12V104.602Z" fill="#bb86fc" stroke="black" stroke-width="1" stroke-linecap="round" stroke-linejoin="round"/>
<path d="M242.265 102.846H239.313V106.053H242.265V102.846Z" fill="#F7F3EF" stroke="#070707" stroke-width="1" stroke-linecap="round" stroke-linejoin="round"/>
<path d="M276.683 246.536H15.4738V398.557H276.683V246.536Z" fill="#F7F3EF" stroke="#070707" stroke-width="1" stroke-linecap="round" stroke-linejoin="round"/>
<path d="M276.683 258.495H15.4738V288.311H276.683V258.495Z" fill="#F7F3EF" stroke="#070707" stroke-width="1" stroke-linecap="round" stroke-linejoin="round"/>
<path d="M276.707 288.312H188.949V398.558H276.707V288.312Z" fill="#F7F3EF" stroke="#070707" stroke-width="1" stroke-linecap="round" stroke-linejoin="round"/>
<path d="M267.844 294.008H197.999V382.929H267.844V294.008Z" fill="#F7F3EF" stroke="#070707" stroke-width="1" stroke-linecap="round" stroke-linejoin="round"/>
<path d="M178.198 294.008H24.7604V382.929H178.198V294.008Z" fill="#F7F3EF" stroke="#070707" stroke-width="1" stroke-linecap="round" stroke-linejoin="round"/>
<path d="M276.679 416.997H268.048L267.843 398.559H276.679V416.997Z" fill="#F7F3EF" stroke="#070707" stroke-width="1" stroke-linecap="round" stroke-linejoin="round"/>
<path d="M15.4738 416.997H24.1051L24.3099 398.559H15.4738V416.997Z" fill="#F7F3EF" stroke="#070707" stroke-width="1" stroke-linecap="round" stroke-linejoin="round"/>
<path d="M188.831 398.559H179.995V417H188.831V398.559Z" fill="#F7F3EF" stroke="#070707" stroke-width="1" stroke-linecap="round" stroke-linejoin="round"/>
<path d="M264.849 296.374V319.73L200.893 369.224V296.374H264.849Z" fill="#1C0E0C"/>
<path d="M264.849 333.326V345.541L222.473 380.005H203.306L264.849 333.326Z" fill="#1C0E0C"/>
<path d="M257.471 299.281H208.368C207.194 299.281 206.242 300.233 206.242 301.406V302.671C206.242 303.845 207.194 304.796 208.368 304.796H257.471C258.645 304.796 259.597 303.845 259.597 302.671V301.406C259.597 300.233 258.645 299.281 257.471 299.281Z" fill="#F7F3EF" stroke="#070707" stroke-width="1" stroke-linecap="round" stroke-linejoin="round"/>
<path d="M227.948 274.099C228.401 271.306 226.503 268.675 223.711 268.223C220.918 267.771 218.288 269.668 217.835 272.461C217.383 275.253 219.28 277.884 222.073 278.336C224.865 278.788 227.496 276.891 227.948 274.099Z" fill="#F7F3EF" stroke="#070707" stroke-width="1" stroke-linecap="round" stroke-linejoin="round"/>
<path d="M244.092 274.437C244.74 271.683 243.033 268.926 240.279 268.278C237.526 267.63 234.768 269.337 234.12 272.091C233.472 274.845 235.179 277.602 237.933 278.25C240.687 278.898 243.444 277.191 244.092 274.437Z" fill="#F7F3EF" stroke="#070707" stroke-width="1" stroke-linecap="round" stroke-linejoin="round"/>
<path d="M222.877 273.255V268.135" stroke="#070707" stroke-width="1" stroke-linecap="round" stroke-linejoin="round"/>
<path d="M239.102 273.255V268.135" stroke="#070707" stroke-width="1" stroke-linecap="round" stroke-linejoin="round"/>
<path d="M52.5768 276.878C54.5772 274.877 54.5772 271.634 52.5768 269.634C50.5764 267.633 47.3331 267.633 45.3327 269.634C43.3323 271.634 43.3323 274.877 45.3327 276.878C47.3331 278.878 50.5764 278.878 52.5768 276.878Z" fill="#F7F3EF" stroke="#070707" stroke-width="1" stroke-linecap="round" stroke-linejoin="round"/>
<path d="M68.8036 276.878C70.804 274.877 70.804 271.634 68.8036 269.634C66.8032 267.633 63.5599 267.633 61.5595 269.634C59.5591 271.634 59.5591 274.877 61.5595 276.878C63.56 278.878 66.8032 278.878 68.8036 276.878Z" fill="#F7F3EF" stroke="#070707" stroke-width="1" stroke-linecap="round" stroke-linejoin="round"/>
<path d="M97.6772 274.437C98.3251 271.683 96.618 268.926 93.8642 268.278C91.1104 267.63 88.3527 269.337 87.7048 272.091C87.0569 274.845 88.764 277.602 91.5178 278.25C94.2716 278.898 97.0293 277.191 97.6772 274.437Z" fill="#F7F3EF" stroke="#070707" stroke-width="1" stroke-linecap="round" stroke-linejoin="round"/>
<path d="M112.539 276.874C114.539 274.873 114.539 271.63 112.539 269.629C110.539 267.629 107.295 267.629 105.295 269.629C103.294 271.63 103.294 274.873 105.295 276.874C107.295 278.874 110.539 278.874 112.539 276.874Z" fill="#F7F3EF" stroke="#070707" stroke-width="1" stroke-linecap="round" stroke-linejoin="round"/>
<path d="M141.412 274.433C142.059 271.679 140.352 268.921 137.599 268.274C134.845 267.626 132.087 269.333 131.439 272.087C130.791 274.84 132.498 277.598 135.252 278.246C138.006 278.894 140.764 277.187 141.412 274.433Z" fill="#F7F3EF" stroke="#070707" stroke-width="1" stroke-linecap="round" stroke-linejoin="round"/>
<path d="M157.638 274.437C158.286 271.683 156.579 268.926 153.825 268.278C151.071 267.63 148.314 269.337 147.666 272.091C147.018 274.845 148.725 277.602 151.479 278.25C154.233 278.898 156.99 277.191 157.638 274.437Z" fill="#F7F3EF" stroke="#070707" stroke-width="1" stroke-linecap="round" stroke-linejoin="round"/>
<path d="M136.425 273.256L140.302 276.599" stroke="#070707" stroke-width="1" stroke-linecap="round" stroke-linejoin="round"/>
<path d="M152.65 273.255V268.135" stroke="#070707" stroke-width="1" stroke-linecap="round" stroke-linejoin="round"/>
<path d="M48.9556 273.253L53.4774 270.848" stroke="#070707" stroke-width="1" stroke-linecap="round" stroke-linejoin="round"/>
<path d="M65.1833 273.255V268.135" stroke="#070707" stroke-width="1" stroke-linecap="round" stroke-linejoin="round"/>
<path d="M92.6899 273.255V268.135" stroke="#070707" stroke-width="1" stroke-linecap="round" stroke-linejoin="round"/>
<path d="M108.918 273.255V268.135" stroke="#070707" stroke-width="1" stroke-linecap="round" stroke-linejoin="round"/>
<path d="M138.055 296.374L27.4751 376.818V296.374H138.055Z" fill="#1C0E0C"/>
<path d="M152.891 296.374H173.145L54.6555 379.413H34.4014L152.891 296.374Z" fill="#1C0E0C"/>
<path d="M167.971 299.281H33.3674C32.3235 299.281 31.4773 300.127 31.4773 301.171V302.906C31.4773 303.95 32.3235 304.796 33.3674 304.796H167.971C169.015 304.796 169.861 303.95 169.861 302.906V301.171C169.861 300.127 169.015 299.281 167.971 299.281Z" fill="#F7F3EF" stroke="#070707" stroke-width="1" stroke-linecap="round" stroke-linejoin="round"/>
<path d="M122.049 246.539L127.647 242.08H154.324L159.923 246.539" fill="#F7F3EF"/>
<path d="M122.049 246.539L127.647 242.08H154.324L159.923 246.539" stroke="#070707" stroke-width="1" stroke-linecap="round" stroke-linejoin="round"/>
<path d="M140.986 242.08V246.539" stroke="#070707" stroke-width="1" stroke-linecap="round" stroke-linejoin="round"/>
<path d="M213.305 246.539L218.903 242.08H245.578L251.176 246.539" fill="#F7F3EF"/>
<path d="M213.305 246.539L218.903 242.08H245.578L251.176 246.539" stroke="#070707" stroke-width="1" stroke-linecap="round" stroke-linejoin="round"/>
<path d="M232.239 242.08V246.539" stroke="#070707" stroke-width="1" stroke-linecap="round" stroke-linejoin="round"/>
<path d="M45.349 246.539L50.9473 242.08H77.6245L83.2228 246.539" fill="#F7F3EF"/>
<path d="M45.349 246.539L50.9473 242.08H77.6245L83.2228 246.539" stroke="#070707" stroke-width="1" stroke-linecap="round" stroke-linejoin="round"/>
<path d="M64.2861 242.08V246.539" stroke="#070707" stroke-width="1" stroke-linecap="round" stroke-linejoin="round"/>
</svg>
